PathFileType	4	(X/Y/Z)	Patient4_TMGait_0pt5_01_left_11.trc.trc
DataRate	CameraRate	NumFrames	NumMarkers	Units	OrigDataRate	OrigDataStartFrame	OrigNumFrames
80.459770114943	80.459770114943	5	33	mm	80.459770114943	106	       141
Frame#	Time	L.ASIS			Sacral			L.Shoulder			Chest			R.Shoulder			Neck			R.ASIS			R.Thigh.Superior			R.Thigh.Lateral			R.Thigh.Inferior			R.Patella			L.Thigh.Superior			L.Thigh.Lateral			L.Thigh.Inferior			L.Patella			L.Shank.Superior			L.Shank.Lateral			L.Shank.Inferior			R.Shank.Superior			R.Shank.Lateral			R.Shank.Inferior			R.Heel			R.Midfoot.Superior			R.Midfoot.Lateral			R.Toe			L.Heel			L.Midfoot.Lateral			L.Midfoot.Superior			L.Toe			L.Elbow			L.Wrist			R.Elbow			R.Wrist			
		X1	Y1	Z1	X2	Y2	Z2	X3	Y3	Z3	X4	Y4	Z4	X5	Y5	Z5	X6	Y6	Z6	X7	Y7	Z7	X8	Y8	Z8	X9	Y9	Z9	X10	Y10	Z10	X11	Y11	Z11	X12	Y12	Z12	X13	Y13	Z13	X14	Y14	Z14	X15	Y15	Z15	X16	Y16	Z16	X17	Y17	Z17	X18	Y18	Z18	X19	Y19	Z19	X20	Y20	Z20	X21	Y21	Z21	X22	Y22	Z22	X23	Y23	Z23	X24	Y24	Z24	X25	Y25	Z25	X26	Y26	Z26	X27	Y27	Z27	X28	Y28	Z28	X29	Y29	Z29	X30	Y30	Z30	X31	Y31	Z31	X32	Y32	Z32	X33	Y33	Z33	

106	16.115000000000	777.526368254988	960.270004435794	342.229772032481	570.415254539518	1010.306474957679	504.699141914286	743.869988606177	1434.189398419234	317.669381416052	851.398286763252	1361.867605427912	474.547680446536	776.785257292812	1435.525536291253	653.454678627728	752.793445189129	1496.514068386163	469.502240872088	801.242936891954	945.145763877520	615.409555985606	837.722143579120	741.464893095279	587.651691640364	753.324510080213	637.253279049500	648.472138572326	823.733827360570	581.453522326932	565.628492487190	820.237904146669	494.976511695937	570.551717002626	862.956720095315	778.587984516323	378.559948921321	823.789430278229	652.533157187881	302.699782847065	925.563795359337	592.592517007126	369.530287355550	941.035509798974	502.669652898997	365.254781342673	877.839458566727	433.620332538032	355.562639281909	741.297901079915	383.552708456099	301.427056525506	733.851172995414	254.806084540500	356.945756733802	794.914566873323	406.534803237978	579.737242748334	726.157661740654	302.058351119970	641.741041759754	769.716093065940	208.046665827295	579.077187681963	636.815665945739	42.546088488393	547.609738039331	807.640006880057	97.737972707462	587.258898522706	718.391404168325	36.172478743531	624.955518019879	926.944206618079	44.230496757955	618.071067505097	545.370380391713	185.023229290077	387.034791749288	606.616115922497	139.836842025101	309.918270094193	710.212831192399	149.238807095094	335.270334405629	789.699287332126	37.681484987722	312.093825949373	695.773069460972	1075.841115594771	215.454300375393	742.035143905847	820.084720564585	210.912954480343	820.840182786279	1091.452374867796	774.496343935365	1034.649553759592	944.805565955754	762.309145035285	
107	16.127428571429	775.722932241711	960.939660011456	342.191567743451	569.801831654709	1011.485479714897	505.920422049372	743.817739846588	1434.206784234021	317.371340821968	852.200531000387	1361.794815799914	473.554853020818	779.336161002431	1436.234105295640	652.841382656862	754.047265416701	1496.771331720574	468.963364952043	800.911771862313	945.061291684724	615.192922722192	835.215415215937	740.815127719395	586.899902492661	750.274049046498	637.436918668461	648.555989761802	819.505929552285	580.922698200152	565.372404703496	815.313041999230	494.601580875938	570.507524953566	862.538096282467	781.437971530971	379.148943181540	824.905501964109	654.923696757992	303.087042297885	927.097465129581	596.199098074191	370.182201126169	944.377365495180	507.321657694356	365.749616101131	884.385890016578	436.753889844172	355.524036467140	750.795384722495	379.662778033662	301.627696561773	750.961240832379	250.406128764348	356.552473320230	789.724467352681	406.329540991620	579.713917997900	720.664845324933	302.083024661274	641.816767055748	763.859257110957	207.950953457759	579.079125130738	630.509639471223	42.522127459027	547.626552303781	801.354865338192	97.722051691596	587.359144146635	712.109376291157	36.164084038951	625.015576694455	920.656451680127	44.215785673625	618.158809555233	567.297040087298	168.845852192957	387.606654223388	630.585579288744	128.788783161187	309.369129312993	733.426876743611	144.498038140139	334.047750834183	819.624404299986	39.032770423435	308.751784371669	690.672373465818	1075.960479321689	217.494321823303	727.133531895899	818.815630355041	214.585379720594	828.605487511818	1093.690576102831	774.571314771366	1050.169604876129	960.028890724839	759.554360966865	
108	16.139857142857	774.008806814893	961.528117734065	341.955986245018	569.256755434743	1012.565448243308	507.013317242899	743.801808603398	1434.226950064271	317.036372990272	853.045230154947	1361.621624641611	472.475766727184	781.977079436268	1436.790011768949	652.155746218819	755.348944524784	1496.957953301824	468.410808151968	800.611629688457	944.908856908602	614.795873165206	832.693413316216	740.120732576220	586.007336008910	747.292676103125	637.572549239678	648.544352329733	815.348245934391	580.370416800983	565.026897955336	810.470093590348	494.190773940351	570.401555206905	861.848009531625	783.821244589695	379.387359918711	825.249314671598	656.829240904317	303.320901422377	927.689829315977	599.105727751552	370.678416607173	946.674632572248	511.538298485649	366.141936763501	890.210061503271	439.599869157114	355.469117419111	760.392230431227	374.966195272558	301.627537974139	768.660350002485	245.673473569603	356.219548096924	784.599843447752	406.096433631195	579.641348729017	715.212198380119	302.096419843929	641.831322192399	758.027851334556	207.821790788781	579.047867699131	624.217807699676	42.493712776612	547.646292780700	795.072123194805	97.694297270877	587.435673233323	705.830200449363	36.153647435205	625.065190451725	914.371773936764	44.184966080682	618.243238662282	590.829558393395	151.837780067960	387.962019014561	656.237912595505	117.146963083224	308.900472484110	757.789086706934	139.613921464948	333.137345668506	850.868174864953	40.990158669739	306.284431274289	685.409100311291	1076.278032045900	219.236444845526	713.060361587152	818.204640488979	218.155663540870	836.107681600179	1095.794408379435	774.369888888074	1064.576599195292	975.456419801784	756.510710269025	
109	16.152285714286	772.422065555396	962.007410379933	341.531746482215	568.792700072886	1013.520257130883	507.961421299948	743.818277697381	1434.234956507644	316.652229747027	853.913618617345	1361.347286495625	471.313727173538	784.654435713230	1437.188491831508	651.388970955946	756.681396094256	1497.065713882089	467.830371425977	800.355152295790	944.686992682242	614.236062337810	830.223508390934	739.388525759804	585.022110708276	744.424329695786	637.649725986531	648.439648561156	811.335469783813	579.792608446230	564.611125766871	805.779417949509	493.736957573375	570.236378934772	860.905824884684	785.675484549218	379.298332074440	824.881302868765	658.221741376705	303.362919119485	927.371454052315	601.263774618321	371.029108573487	947.970548067526	515.269368679273	366.436670528806	895.282351807263	442.158891537988	355.428301346072	770.098277866975	369.684036263673	301.395158577451	786.693149445569	240.933207184884	355.997785603304	779.599932378863	405.823714999808	579.517499478545	709.847331866105	302.098143362179	641.785071936569	752.247207704193	207.651633604534	578.979627931953	617.942271646366	42.466090012401	547.675675556372	788.794158922977	97.652359958650	587.482172042947	699.555342123012	36.144273126782	625.105126043586	908.092748325177	44.131402976148	618.324310791812	615.678263408523	134.705413412155	388.060193754966	683.248630277407	105.483883006368	308.552784659604	782.900067737111	134.977634048905	332.635739246672	882.791846029087	43.804709172823	304.943158190043	679.998321984302	1076.785448577915	220.665592240781	699.888135021933	818.146076633928	221.588546209371	843.369830980050	1097.744147797366	773.890994217579	1077.840097100733	990.906964649934	753.210737912145	
110	16.164714285714	770.992943647271	962.356998178872	340.929179370480	568.422072191334	1014.332341152527	508.748527939168	743.865547790693	1434.218243909195	316.202478721695	854.786581060695	1360.979796542296	470.072048635332	787.308709542018	1437.436654995779	650.531085282985	758.025093583743	1497.091523776908	467.202802651095	800.159116065207	944.400527561492	613.530927547064	827.872022654629	738.626729111723	583.986654814903	741.707922424762	637.660935754553	648.242711815915	807.532283590287	579.185402366882	564.139991042666	801.303763807992	493.234981914316	570.013444562469	859.728351111208	786.960334221037	378.921998260368	823.882020359382	659.101119639220	303.177826851686	926.197945924788	602.662359215961	371.244963037212	948.333435354012	518.490768939305	366.638975313016	899.591252251788	444.437700368416	355.420348938040	779.877011846659	364.049673983937	300.928297708327	804.770412970270	236.475119827743	355.931835160328	774.775806898410	405.501415288714	579.339098023557	704.610555445393	302.088971272972	641.678007004903	746.538910793123	207.436544229210	578.871423238825	611.683811871199	42.444416705857	547.718447118932	782.522508207138	97.595437822546	587.494746059889	693.286062304246	36.139713010924	625.136505046760	901.820955876603	44.052375102773	618.402085856754	641.455409939356	118.091943443593	387.910942412835	711.197593850241	94.316482580206	308.376691201606	808.313548737865	130.925470502592	332.609277624987	914.741165523414	47.663076142312	304.878176128357	674.469065822755	1077.469808554142	221.783001358334	687.652347656041	818.533479951392	224.846416920739	850.408509398742	1099.535997637938	773.131807828576	1089.947294848982	1006.207049087315	749.683130465862	
